HIERARCHY
ROOT pelvis
{
  OFFSET 0 100 0
  CHANNELS 6 Xposition Yposition Zposition Zrotation Xrotation Yrotation
  JOINT pelvis_right_femur
  {
    OFFSET -10.78128 -3.44521 -0.5502486
    CHANNELS 3 Zrotation Xrotation Yrotation
    JOINT right_femur_tibia
    {
      OFFSET -0.8047443 -44.0398 -0.1307829
      CHANNELS 3 Zrotation Xrotation Yrotation
      JOINT right_tibia_foot
      {
        OFFSET 3.006224 -47.83518 -5
        CHANNELS 3 Zrotation Xrotation Yrotation
        End Site
        {
          OFFSET 0 -5 15
        }
      }
    }
  }
  JOINT pelvis_left_femur
  {
    OFFSET 10.78128 -3.44521 -0.5502486
    CHANNELS 3 Zrotation Xrotation Yrotation
    JOINT left_femur_tibia
    {
      OFFSET 0.8047443 -44.0398 -0.1307829
      CHANNELS 3 Zrotation Xrotation Yrotation
      JOINT left_tibia_foot
      {
        OFFSET -4.370144 -48.10324 -4.275266
        CHANNELS 3 Zrotation Xrotation Yrotation
        End Site
        {
          OFFSET 0 -5 15
        }
      }
    }
  }
  JOINT pelvis_spine1
  {
    OFFSET 0 6.468898 -3.129235
    CHANNELS 3 Zrotation Xrotation Yrotation
    JOINT spine1
    {
      OFFSET 0 23.15396 4.99043
      CHANNELS 3 Zrotation Xrotation Yrotation
      JOINT spine2
      {
        OFFSET 0 20.79997 -5.064912
        CHANNELS 3 Zrotation Xrotation Yrotation
        JOINT neck
        {
          OFFSET 0 14.38658 9.616178
          CHANNELS 3 Zrotation Xrotation Yrotation
          End Site
          {
            OFFSET 0 20 0
          }
        }
      }
      JOINT right_manubrium
      {
        OFFSET -5.722621 16.35077 3.967754
        CHANNELS 3 Zrotation Xrotation Yrotation
        JOINT right_clavicle
        {
          OFFSET -13.16364 1.694482 -4.693211
          CHANNELS 3 Zrotation Xrotation Yrotation
          JOINT right_humerus
          {
            OFFSET -28.5034 -0.3100689 -2.792744
            CHANNELS 3 Zrotation Xrotation Yrotation
            JOINT right_radius
            {
              OFFSET -25.15693 0.02248979 -1.271978
              CHANNELS 3 Zrotation Xrotation Yrotation
              End Site
              {
                OFFSET -15 0 0
              }
            }
          }
        }
      }
      JOINT left_manubrium
      {
        OFFSET 5.722621 16.35077 3.967754
        CHANNELS 3 Zrotation Xrotation Yrotation
        JOINT left_clavicle
        {
          OFFSET 13.16364 1.694482 -4.693211
          CHANNELS 3 Zrotation Xrotation Yrotation
          JOINT left_humerus
          {
            OFFSET 29.39168 -1.063119 -2.237045
            CHANNELS 3 Zrotation Xrotation Yrotation
            JOINT left_radius
            {
              OFFSET 24.59957 -0.9528479 0.9047498
              CHANNELS 3 Zrotation Xrotation Yrotation
              End Site
              {
                OFFSET 15 -0 -0
              }
            }
          }
        }
      }
    }
  }
}
MOTION
Frames: 13
Frame Time: 0.0416666666667
-234.9413 99.69602 2999.976 -0.1121599 -5.572882 -13.60497 -0.009626606 -24.5255 -1.708398 -0 18.00211 -0 -4.381292 0.4052814 -5.540938 -5.635695 13.17889 -7.967119 -0 12.10615 -0 -0.5533997 -19.95684 13.75911 1.324562 -2.026237 6.073742 -0.0914128 14.41783 -6.825378 1.76685 21.07421 3.540927 -0.05648667 -22.79884 6.641309 -7.123601 -25.77246 10.35969 99.90531 18.36495 -19.59797 -0 0 12.46203 -20.13703 8.484779 11.56795 1.835912 -25.5099 -7.841985 -85.85379 15.03779 22.65877 0 0 -28.9955 5.293854 10.22975 10.43011
-236.4042 98.22931 3005.935 0.3654895 -4.920769 -13.07861 -0.04580453 -25.95215 -2.502197 -0 10.44883 -0 -4.300038 0.2723539 -5.649691 -5.763666 15.55992 -7.705006 -0 14.27499 -0 -1.57669 -20.5806 12.6615 1.442034 -2.088607 6.099527 -0.1165766 14.58013 -7.10242 1.753918 20.95241 3.57358 -0.0005982049 -22.52127 6.569499 -7.294284 -25.55198 10.43224 100.8403 18.70371 -20.68866 -0 0 11.66808 -19.84794 8.142038 11.06124 1.588589 -26.18272 -8.164824 -84.70805 14.29747 21.54975 0 0 -31.39591 5.431898 10.1116 10.35351
-238.1248 96.94539 3012.335 0.4644532 -4.403493 -12.6175 0.627864 -26.13896 -2.544925 -0 6.830073 -0 -4.460843 0.7168163 -5.826742 -5.621962 17.42419 -7.334505 -0 18.64951 -0 -2.624422 -19.79076 11.84724 1.536563 -2.142071 6.148416 -0.1463216 14.73233 -7.266046 1.750929 20.84687 3.567528 0.02798572 -22.29074 6.499071 -7.373159 -25.47659 10.50386 101.3748 18.9103 -21.29571 -0 0 11.31915 -19.69792 8.012998 10.78497 1.402825 -26.58059 -8.384249 -84.05524 13.75678 21.00872 0 0 -32.81783 5.479787 10.06924 10.33699
-240.0951 96.16902 3019.112 0.05813953 -4.231169 -12.30411 2.070668 -25.08946 -1.743011 -0 7.109524 -0 -4.832143 1.329757 -6.08262 -5.128887 18.39762 -6.886184 -0 25.42201 -0 -3.610986 -17.50753 11.48251 1.610637 -2.18052 6.218634 -0.1733608 14.87963 -7.322149 1.759085 20.75076 3.503969 0.009611305 -22.13467 6.427132 -7.370444 -25.56673 10.56551 101.4969 18.97227 -21.39736 -0 0 11.44978 -19.67304 8.134768 10.74197 1.282095 -26.68687 -8.488287 -83.89738 13.45321 21.06899 0 0 -33.21286 5.430931 10.09163 10.39093
-242.2402 96.10711 3026.107 -0.7664397 -4.576077 -12.28852 3.956889 -22.71023 -0.3086296 -0 10.02147 -0 -5.241841 1.590512 -6.363206 -4.362259 17.91851 -6.44916 -0 34.33235 -0 -4.492156 -14.12062 11.69085 1.666973 -2.193197 6.32308 -0.2000536 15.01942 -7.275347 1.775502 20.64323 3.371415 -0.06984795 -22.06832 6.348379 -7.3135 -25.85808 10.60231 101.2337 18.93436 -20.97897 -0 0 12.11057 -19.74239 8.497792 10.92392 1.205027 -26.4906 -8.471873 -84.20202 13.36542 21.76777 0 0 -32.62294 5.253309 10.11933 10.5598
-244.4273 96.77971 3033.081 -1.692101 -5.415668 -12.70366 5.651575 -18.92025 1.299856 -0 13.49723 -0 -5.509794 1.008724 -6.570019 -3.571409 15.4429 -6.111077 -0 44.35109 -0 -5.242752 -10.49856 12.47429 1.706718 -2.168749 6.483677 -0.2354642 15.14205 -7.130844 1.794165 20.49449 3.167024 -0.2174969 -22.09265 6.256391 -7.240254 -26.39017 10.59681 100.6426 18.88301 -20.0402 -0 0 13.35143 -19.8634 9.054096 11.31001 1.133611 -25.99187 -8.337269 -84.90506 13.42292 23.12574 0 0 -31.17983 4.900273 10.06199 10.90623
-246.5251 98.00005 3039.775 -2.324534 -6.490165 -13.53542 6.563194 -13.87675 2.606787 -0 15.6682 -0 -5.595094 -0.6036125 -6.578492 -3.017694 10.79689 -5.894292 -0 53.62715 -0 -5.806832 -7.65244 13.65818 1.726988 -2.101188 6.71944 -0.2885944 15.23335 -6.899699 1.807568 20.2753 2.896449 -0.4332904 -22.19716 6.145834 -7.190148 -27.18683 10.53301 99.79825 18.9137 -18.60898 -0 0 15.18966 -19.98989 9.735065 11.86448 1.029466 -25.2115 -8.093748 -85.91167 13.53036 25.10916 0 0 -29.09733 4.3345 9.82888 11.47844
-248.4655 99.4333 3046.019 -2.450812 -7.464445 -14.59781 6.54843 -8.098264 3.374147 -0 15.82989 -0 -5.593339 -2.956679 -6.285095 -2.722899 4.429047 -5.740146 -0 59.96194 -0 -6.105072 -6.178464 14.96181 1.718528 -1.994018 7.032103 -0.3612502 15.27627 -6.600738 1.808798 19.97143 2.574572 -0.7086504 -22.36666 6.016124 -7.190869 -28.23297 10.40093 98.77094 19.08996 -16.75049 -0 0 17.57494 -20.08638 10.47212 12.54025 0.874732 -24.19524 -7.755184 -87.11076 13.60754 27.60027 0 0 -26.62597 3.556861 9.366826 12.27289
-250.2496 100.7098 3051.794 -2.183984 -8.120088 -15.66686 5.960106 -2.288564 3.650598 -0 14.50646 -0 -5.579936 -5.532108 -5.676234 -2.40312 -2.735274 -5.538765 -0 61.63547 -0 -6.143136 -5.961087 16.17494 1.666504 -1.861618 7.398376 -0.4452201 15.25291 -6.255317 1.793445 19.59743 2.228267 -1.023232 -22.58897 5.875868 -7.245394 -29.46186 10.20184 97.6064 19.4086 -14.56472 -0 0 20.36983 -20.14641 11.20932 13.29198 0.6866477 -23.00901 -7.337452 -88.40938 13.62807 30.40473 0 0 -23.97488 2.623384 8.691345 13.21592
-251.9058 101.5275 3057.202 -1.842034 -8.365196 -16.61469 5.306444 2.977587 3.617336 -0 12.66876 -0 -5.51074 -8.061137 -4.832174 -1.701366 -9.738019 -5.188959 -0 58.06171 -0 -6.054298 -6.404168 17.23875 1.556813 -1.728902 7.775781 -0.5257474 15.15 -5.879801 1.760707 19.1989 1.898117 -1.343519 -22.85937 5.74519 -7.329585 -30.76484 9.952471 96.32629 19.78928 -12.1793 -0 0 23.35812 -20.20276 11.90131 14.09016 0.5139152 -21.73219 -6.85935 -89.76515 13.62771 33.29523 0 0 -21.25789 1.63728 7.892328 14.18195
-253.4567 101.7164 3062.41 -1.683294 -8.135226 -17.42911 4.897389 7.408782 3.427982 -0 11.04076 -0 -5.291495 -10.62869 -3.860491 -0.4981094 -15.90233 -4.659877 -0 50.00866 -0 -5.965458 -6.889245 18.15822 1.385469 -1.627092 8.118106 -0.5887936 14.96654 -5.483719 1.713636 18.83969 1.633579 -1.627261 -23.17737 5.652398 -7.404121 -32.01748 9.684649 94.956 20.10192 -9.747788 -0 0 26.27622 -20.31563 12.50278 14.92149 0.4148842 -20.45439 -6.347018 -91.18281 13.67448 36.05803 0 0 -18.51283 0.7200391 7.106854 15.03802
-254.9202 101.2706 3067.61 -1.747096 -7.396073 -18.16103 4.733589 10.96493 3.158227 -0 10.00446 -0 -4.898151 -13.29701 -2.849998 0.9591695 -20.84117 -4.029135 -0 39.43412 -0 -5.863394 -7.070215 18.91905 1.164728 -1.582508 8.389248 -0.6276337 14.7173 -5.074768 1.658607 18.58178 1.480524 -1.83282 -23.53598 5.624591 -7.432547 -33.10372 9.437796 93.55712 20.22473 -7.448102 -0 0 28.85339 -20.54101 12.96206 15.77169 0.4312569 -19.27077 -5.836701 -92.67117 13.82545 38.51381 0 0 -15.77224 -0.02161882 6.472082 15.68588
-256.3221 100.3368 3072.985 -1.884999 -6.262934 -18.86821 4.594573 13.78085 2.842921 -0 9.809757 -0 -4.413648 -15.7284 -1.878528 2.162363 -24.35496 -3.505132 -0 28.91107 -0 -5.634232 -6.926939 19.5056 0.9213674 -1.602878 8.568459 -0.6450446 14.4288 -4.665364 1.603932 18.46889 1.46649 -1.929509 -23.91226 5.67672 -7.394406 -33.92862 9.247025 92.23427 20.10014 -5.466302 -0 0 30.85211 -20.89861 13.2269 16.60484 0.5727514 -18.27002 -5.370965 -94.19506 14.10226 40.51752 0 0 -13.12032 -0.5185819 6.082602 16.08056
